# Blender 4.0.2
# www.blender.org
mtllib PnP2SpawnBuilding.mtl
o Cube
v 8.111033 4.991650 -8.148753
v 8.111033 4.742511 -8.148753
v 10.457640 4.991650 10.363346
v 10.457640 4.742511 10.363346
v -10.401063 4.991650 -10.495355
v -10.401063 4.742511 -10.495355
v -10.401063 4.991650 10.363346
v -10.401063 4.742511 10.363346
v -10.401063 4.742511 -4.759214
v 10.457640 4.991650 -4.759214
v -10.401063 4.991650 -4.759214
v 10.457640 4.742511 -4.759214
v 4.721497 4.742511 -10.495355
v 4.721497 4.991650 10.363346
v 4.721497 4.742511 10.363346
v 4.721497 4.991650 -10.495355
v 4.721497 4.742511 -4.759214
v 4.721497 4.991650 -4.759214
v -10.401063 0.008893 10.884812
v -10.401063 4.991650 10.884812
v -10.401063 0.008893 10.363346
v -10.401063 4.991650 10.363346
v 10.457637 0.008893 10.884812
v 10.457637 4.991650 10.884812
v 10.457637 0.008893 10.363346
v 10.457637 4.991650 10.363346
v -10.922531 0.008893 -10.495355
v -10.922531 4.991650 -10.495355
v -10.922531 0.008893 -11.016823
v -10.922531 4.991650 -11.016823
v 4.721495 0.008893 -10.495355
v 4.721495 4.991650 -10.495355
v 4.721495 0.008893 -11.016823
v 4.721495 4.991650 -11.016823
v -10.922531 0.008893 10.884812
v -10.922531 4.991650 10.884812
v -10.922531 0.008893 -10.495355
v -10.922531 4.991650 -10.495355
v -10.401063 0.008893 10.884812
v -10.401063 4.991650 10.884812
v -10.401063 0.008893 -10.495355
v -10.401063 4.991650 -10.495355
v 10.457640 0.008893 10.884812
v 10.457640 4.991650 10.884812
v 10.457640 0.008893 -4.759213
v 10.457640 4.991650 -4.759213
v 10.979105 0.008893 10.884812
v 10.979105 4.991650 10.884812
v 10.979105 0.008893 -4.759213
v 10.979105 4.991650 -4.759213
vn -0.0000 1.0000 -0.0000
vn -0.0000 -0.0000 1.0000
vn -1.0000 -0.0000 -0.0000
vn -0.0000 -1.0000 -0.0000
vn 1.0000 -0.0000 -0.0000
vn 0.5692 -0.0000 -0.8222
vn 0.8222 -0.0000 -0.5692
vn -0.0000 -0.0000 -1.0000
vt 0.693750 0.568750
vt 0.875000 0.568750
vt 0.875000 0.750000
vt 0.693750 0.750000
vt 0.375000 0.818750
vt 0.625000 0.818750
vt 0.625000 1.000000
vt 0.375000 1.000000
vt 0.375000 0.181250
vt 0.625000 0.181250
vt 0.625000 0.250000
vt 0.375000 0.250000
vt 0.306250 0.568750
vt 0.375000 0.568750
vt 0.375000 0.750000
vt 0.306250 0.750000
vt 0.625000 0.568750
vt 0.625000 0.750000
vt 0.375000 0.431250
vt 0.625000 0.431250
vt 0.625000 0.500000
vt 0.375000 0.500000
vt 0.306250 0.500000
vt 0.375000 0.000000
vt 0.625000 0.000000
vt 0.693750 0.500000
vt 0.875000 0.500000
vt 0.125000 0.500000
vt 0.125000 0.568750
vt 0.125000 0.750000
s 0
usemtl Material
f 18/1/1 11/2/1 7/3/1 14/4/1
f 15/5/2 14/6/2 7/7/2 8/8/2
f 9/9/3 11/10/3 5/11/3 6/12/3
f 17/13/4 12/14/4 4/15/4 15/16/4
f 12/14/5 10/17/5 3/18/5 4/15/5
f 13/19/6 16/20/6 1/21/6 2/22/6
f 2/22/7 1/21/7 10/17/7 12/14/7
f 13/23/4 2/22/4 12/14/4 17/13/4
f 8/24/3 7/25/3 11/10/3 9/9/3
f 16/26/1 5/27/1 11/2/1 18/1/1
f 1/21/1 16/26/1 18/1/1 10/17/1
f 6/28/4 13/23/4 17/13/4 9/29/4
f 6/12/8 5/11/8 16/20/8 13/19/8
f 9/29/4 17/13/4 15/16/4 8/30/4
f 4/15/2 3/18/2 14/6/2 15/5/2
f 10/17/1 18/1/1 14/4/1 3/18/1
f 19/24/3 20/25/3 22/11/3 21/12/3
f 21/12/8 22/11/8 26/21/8 25/22/8
f 25/22/5 26/21/5 24/18/5 23/15/5
f 23/15/2 24/18/2 20/7/2 19/8/2
f 21/28/4 25/22/4 23/15/4 19/30/4
f 26/21/1 22/27/1 20/3/1 24/18/1
f 27/24/3 28/25/3 30/11/3 29/12/3
f 29/12/8 30/11/8 34/21/8 33/22/8
f 33/22/5 34/21/5 32/18/5 31/15/5
f 31/15/2 32/18/2 28/7/2 27/8/2
f 29/28/4 33/22/4 31/15/4 27/30/4
f 34/21/1 30/27/1 28/3/1 32/18/1
f 35/24/3 36/25/3 38/11/3 37/12/3
f 37/12/8 38/11/8 42/21/8 41/22/8
f 41/22/5 42/21/5 40/18/5 39/15/5
f 39/15/2 40/18/2 36/7/2 35/8/2
f 37/28/4 41/22/4 39/15/4 35/30/4
f 42/21/1 38/27/1 36/3/1 40/18/1
f 43/24/3 44/25/3 46/11/3 45/12/3
f 45/12/8 46/11/8 50/21/8 49/22/8
f 49/22/5 50/21/5 48/18/5 47/15/5
f 47/15/2 48/18/2 44/7/2 43/8/2
f 45/28/4 49/22/4 47/15/4 43/30/4
f 50/21/1 46/27/1 44/3/1 48/18/1
